<svg xmlns="http://www.w3.org/2000/svg" width="150" height="150" viewBox="0 0 150 150" version="1.1"><path d="M 62.075 4.022 C 46.441 7.319, 35.870 13.066, 24.468 24.468 C 14.534 34.402, 9.903 41.994, 5.842 55 C 2.480 65.768, 2.480 84.232, 5.842 95 C 9.903 108.006, 14.534 115.598, 24.468 125.532 C 34.402 135.466, 41.994 140.097, 55 144.158 C 61.184 146.089, 64.693 146.500, 75 146.500 C 85.307 146.500, 88.816 146.089, 95 144.158 C 108.006 140.097, 115.598 135.466, 125.532 125.532 C 135.466 115.598, 140.097 108.006, 144.158 95 C 147.520 84.232, 147.520 65.768, 144.158 55 C 140.097 41.994, 135.466 34.402, 125.532 24.468 C 115.712 14.649, 108.050 9.937, 95.500 6.003 C 87.584 3.521, 69.526 2.451, 62.075 4.022 M 57.500 25.871 C 46.092 29.819, 34.804 39.621, 29.388 50.282 C 17.452 73.776, 23.235 101.114, 43.372 116.390 C 49.160 120.781, 57.915 125.170, 59.246 124.348 C 59.731 124.048, 60.029 120.585, 59.909 116.651 L 59.690 109.500 62.595 109.776 C 76.721 111.120, 80.135 111.111, 84.901 109.714 L 90 108.219 90 116.050 C 90 120.358, 90.338 124.085, 90.750 124.333 C 92.458 125.359, 104.172 118.577, 110.143 113.106 C 127.186 97.489, 131.543 72.637, 120.957 51.426 C 115.019 39.530, 102.972 28.851, 91.720 25.510 C 82.252 22.698, 82.448 22.504, 82.854 34.249 C 83.049 39.887, 82.890 50.481, 82.500 57.792 L 81.791 71.083 74.645 70.792 L 67.500 70.500 67.232 47.250 L 66.963 24 64.732 24.070 C 63.504 24.109, 60.250 24.919, 57.500 25.871 M 51.500 41.794 C 34.755 54.177, 29.369 75.547, 38.521 93.293 C 41.155 98.400, 46.609 105, 48.196 105 C 50.035 105, 48.768 100.677, 45.376 95.373 C 35.080 79.279, 37.799 59.888, 52.062 47.679 C 55.268 44.935, 56.080 43.603, 55.825 41.508 L 55.500 38.836 51.500 41.794 M 94 41.400 C 94 43.045, 95.766 45.644, 99.289 49.185 C 110.712 60.666, 113.822 76.157, 107.460 89.889 C 106.116 92.790, 104.112 96.313, 103.008 97.717 C 100.972 100.306, 100.255 105, 101.896 105 C 103.566 105, 109.285 97.620, 111.695 92.355 C 119.026 76.343, 115.306 56.754, 102.799 45.509 C 99.972 42.967, 96.836 40.447, 95.829 39.909 C 94.286 39.083, 94 39.316, 94 41.400 M 52.464 65.079 C 46.770 77.707, 53.679 93.909, 66.748 98.573 C 74.622 101.383, 84.105 99.510, 91.041 93.774 C 94.507 90.908, 97.840 85.204, 98.840 80.428 C 100.034 74.728, 98.366 64.938, 95.757 62.328 C 94.483 61.054, 94.224 61.695, 93.685 67.468 C 93.020 74.587, 91.677 77.255, 87.305 80.137 C 83.582 82.592, 67.447 82.800, 62.906 80.451 C 58.336 78.088, 56.008 73.468, 56.004 66.750 C 56.002 63.587, 55.618 61, 55.152 61 C 54.685 61, 53.476 62.836, 52.464 65.079" stroke="none" fill="#fb2d35" fill-rule="evenodd"/><path d="M 57.804 1.548 C 32.490 7.686, 12.103 26.378, 3.318 51.500 C 0.720 58.932, 0.521 60.601, 0.521 75 C 0.521 89.399, 0.720 91.068, 3.318 98.500 C 12.182 123.849, 32.622 142.454, 58.244 148.495 C 66.281 150.390, 83.719 150.390, 91.756 148.495 C 117.296 142.474, 138.235 123.454, 146.442 98.824 C 147.849 94.602, 149 90.241, 149 89.133 C 149 88.025, 149.450 86.840, 150 86.500 C 150.577 86.144, 151 80.803, 151 73.882 C 151 66.137, 150.645 62.101, 150 62.500 C 149.450 62.840, 149 62.158, 149 60.985 C 149 59.812, 147.849 55.398, 146.442 51.176 C 138.235 26.546, 117.296 7.526, 91.756 1.505 C 83.933 -0.340, 65.492 -0.316, 57.804 1.548 M 62.075 4.022 C 46.441 7.319, 35.870 13.066, 24.468 24.468 C 14.534 34.402, 9.903 41.994, 5.842 55 C 2.480 65.768, 2.480 84.232, 5.842 95 C 9.903 108.006, 14.534 115.598, 24.468 125.532 C 34.402 135.466, 41.994 140.097, 55 144.158 C 61.184 146.089, 64.693 146.500, 75 146.500 C 85.307 146.500, 88.816 146.089, 95 144.158 C 108.006 140.097, 115.598 135.466, 125.532 125.532 C 135.466 115.598, 140.097 108.006, 144.158 95 C 147.520 84.232, 147.520 65.768, 144.158 55 C 140.097 41.994, 135.466 34.402, 125.532 24.468 C 115.712 14.649, 108.050 9.937, 95.500 6.003 C 87.584 3.521, 69.526 2.451, 62.075 4.022 M 57.500 25.871 C 46.092 29.819, 34.804 39.621, 29.388 50.282 C 17.452 73.776, 23.235 101.114, 43.372 116.390 C 49.160 120.781, 57.915 125.170, 59.246 124.348 C 59.731 124.048, 60.029 120.585, 59.909 116.651 L 59.690 109.500 62.595 109.776 C 76.721 111.120, 80.135 111.111, 84.901 109.714 L 90 108.219 90 116.050 C 90 120.358, 90.338 124.085, 90.750 124.333 C 92.458 125.359, 104.172 118.577, 110.143 113.106 C 127.186 97.489, 131.543 72.637, 120.957 51.426 C 115.019 39.530, 102.972 28.851, 91.720 25.510 C 82.252 22.698, 82.448 22.504, 82.854 34.249 C 83.049 39.887, 82.890 50.481, 82.500 57.792 L 81.791 71.083 74.645 70.792 L 67.500 70.500 67.232 47.250 L 66.963 24 64.732 24.070 C 63.504 24.109, 60.250 24.919, 57.500 25.871 M 51.500 41.794 C 34.755 54.177, 29.369 75.547, 38.521 93.293 C 41.155 98.400, 46.609 105, 48.196 105 C 50.035 105, 48.768 100.677, 45.376 95.373 C 35.080 79.279, 37.799 59.888, 52.062 47.679 C 55.268 44.935, 56.080 43.603, 55.825 41.508 L 55.500 38.836 51.500 41.794 M 94 41.400 C 94 43.045, 95.766 45.644, 99.289 49.185 C 110.712 60.666, 113.822 76.157, 107.460 89.889 C 106.116 92.790, 104.112 96.313, 103.008 97.717 C 100.972 100.306, 100.255 105, 101.896 105 C 103.566 105, 109.285 97.620, 111.695 92.355 C 119.026 76.343, 115.306 56.754, 102.799 45.509 C 99.972 42.967, 96.836 40.447, 95.829 39.909 C 94.286 39.083, 94 39.316, 94 41.400 M 52.464 65.079 C 46.770 77.707, 53.679 93.909, 66.748 98.573 C 74.622 101.383, 84.105 99.510, 91.041 93.774 C 94.507 90.908, 97.840 85.204, 98.840 80.428 C 100.034 74.728, 98.366 64.938, 95.757 62.328 C 94.483 61.054, 94.224 61.695, 93.685 67.468 C 93.020 74.587, 91.677 77.255, 87.305 80.137 C 83.582 82.592, 67.447 82.800, 62.906 80.451 C 58.336 78.088, 56.008 73.468, 56.004 66.750 C 56.002 63.587, 55.618 61, 55.152 61 C 54.685 61, 53.476 62.836, 52.464 65.079 M 0.385 75 C 0.385 81.875, 0.545 84.688, 0.740 81.250 C 0.936 77.813, 0.936 72.188, 0.740 68.750 C 0.545 65.313, 0.385 68.125, 0.385 75" stroke="none" fill="#f9f5f6" fill-rule="evenodd"/></svg>