<svg xmlns="http://www.w3.org/2000/svg" width="150" height="150" viewBox="0 0 150 150" version="1.1"><path d="M 62.363 4.024 C 48.035 6.610, 35.745 13.256, 24.497 24.500 C 15.360 33.634, 10.104 42.010, 6.301 53.500 C 3.963 60.564, 3.653 63.080, 3.653 75 C 3.653 86.920, 3.963 89.436, 6.301 96.500 C 10.103 107.988, 15.359 116.365, 24.497 125.503 C 33.635 134.641, 42.012 139.897, 53.500 143.699 C 60.564 146.037, 63.080 146.347, 75 146.347 C 86.920 146.347, 89.436 146.037, 96.500 143.699 C 142.130 128.596, 161.125 75.512, 135.112 35.793 C 126.117 22.058, 112.056 11.355, 96.500 6.401 C 87.514 3.540, 71.300 2.410, 62.363 4.024 M 58.929 25.292 C 41.191 31.339, 28.170 45.552, 24.535 62.835 C 20.059 84.112, 26.598 103.170, 42.773 115.992 C 47.456 119.704, 56.977 125, 58.967 125 C 59.592 125, 60 121.813, 60 116.921 L 60 108.841 63.250 109.671 C 65.037 110.127, 70.325 110.500, 75 110.500 C 79.675 110.500, 84.963 110.127, 86.750 109.671 L 90 108.841 90 116.921 C 90 121.364, 90.273 125, 90.607 125 C 93.315 125, 104.877 117.931, 110.306 112.956 C 136.323 89.117, 130.483 45.575, 98.989 28.567 C 93.531 25.620, 83.610 22.723, 82.562 23.771 C 82.253 24.080, 82 34.853, 82 47.710 L 82 71.088 74.750 70.794 L 67.500 70.500 67.232 46.750 C 67.084 33.688, 66.634 23.012, 66.232 23.026 C 65.829 23.040, 62.543 24.060, 58.929 25.292 M 94 41.444 C 94 43.140, 95.452 45.297, 98.456 48.066 C 106.850 55.804, 111.675 67.623, 110.723 78.119 C 110.185 84.049, 106.616 93.131, 103.031 97.687 C 100.955 100.327, 100.253 105, 101.933 105 C 103.489 105, 109.817 96.655, 112.231 91.420 C 114.173 87.209, 114.500 84.842, 114.500 75 C 114.500 64.304, 114.295 63.081, 111.561 57.500 C 108.680 51.617, 100.598 42.461, 96.216 40.116 C 94.201 39.037, 94 39.158, 94 41.444 M 48.315 44.505 C 34.385 56.691, 30.364 75.282, 38.050 91.959 C 39.787 95.727, 42.736 100.291, 44.604 102.101 L 48 105.392 48 102.534 C 48 100.961, 46.614 97.515, 44.919 94.874 C 39.179 85.929, 37.489 73.832, 40.664 64.428 C 42.926 57.730, 45.853 53.297, 51.360 48.229 C 55.766 44.174, 57.477 40, 54.733 40 C 54.036 40, 51.148 42.027, 48.315 44.505 M 52.527 64.940 C 51.460 67.307, 50.727 71.410, 50.691 75.216 C 50.560 89.089, 61.696 100.029, 75.909 99.990 C 83.813 99.969, 94.237 92.463, 97.625 84.355 C 99.714 79.354, 99.331 70.284, 96.806 65 L 94.655 60.500 93.915 67.207 C 93.115 74.448, 91.681 77.252, 87.305 80.137 C 83.582 82.592, 67.447 82.800, 62.906 80.451 C 58.336 78.088, 56.008 73.468, 56.004 66.750 C 56.002 63.587, 55.618 61, 55.152 61 C 54.685 61, 53.504 62.773, 52.527 64.940" stroke="none" fill="#7695ec" fill-rule="evenodd"/><path d="M 57.804 1.548 C 32.490 7.686, 12.103 26.378, 3.318 51.500 C 0.720 58.932, 0.521 60.601, 0.521 75 C 0.521 89.399, 0.720 91.068, 3.318 98.500 C 12.182 123.849, 32.622 142.454, 58.244 148.495 C 66.281 150.390, 83.719 150.390, 91.756 148.495 C 117.296 142.474, 138.235 123.454, 146.442 98.824 C 147.849 94.602, 149 90.241, 149 89.133 C 149 88.025, 149.450 86.840, 150 86.500 C 150.577 86.144, 151 80.803, 151 73.882 C 151 66.137, 150.645 62.101, 150 62.500 C 149.450 62.840, 149 62.158, 149 60.985 C 149 59.812, 147.849 55.398, 146.442 51.176 C 138.235 26.546, 117.296 7.526, 91.756 1.505 C 83.933 -0.340, 65.492 -0.316, 57.804 1.548 M 62.363 4.024 C 48.035 6.610, 35.745 13.256, 24.497 24.500 C 15.360 33.634, 10.104 42.010, 6.301 53.500 C 3.963 60.564, 3.653 63.080, 3.653 75 C 3.653 86.920, 3.963 89.436, 6.301 96.500 C 10.103 107.988, 15.359 116.365, 24.497 125.503 C 33.635 134.641, 42.012 139.897, 53.500 143.699 C 60.564 146.037, 63.080 146.347, 75 146.347 C 86.920 146.347, 89.436 146.037, 96.500 143.699 C 142.130 128.596, 161.125 75.512, 135.112 35.793 C 126.117 22.058, 112.056 11.355, 96.500 6.401 C 87.514 3.540, 71.300 2.410, 62.363 4.024 M 58.929 25.292 C 41.191 31.339, 28.170 45.552, 24.535 62.835 C 20.059 84.112, 26.598 103.170, 42.773 115.992 C 47.456 119.704, 56.977 125, 58.967 125 C 59.592 125, 60 121.813, 60 116.921 L 60 108.841 63.250 109.671 C 65.037 110.127, 70.325 110.500, 75 110.500 C 79.675 110.500, 84.963 110.127, 86.750 109.671 L 90 108.841 90 116.921 C 90 121.364, 90.273 125, 90.607 125 C 93.315 125, 104.877 117.931, 110.306 112.956 C 136.323 89.117, 130.483 45.575, 98.989 28.567 C 93.531 25.620, 83.610 22.723, 82.562 23.771 C 82.253 24.080, 82 34.853, 82 47.710 L 82 71.088 74.750 70.794 L 67.500 70.500 67.232 46.750 C 67.084 33.688, 66.634 23.012, 66.232 23.026 C 65.829 23.040, 62.543 24.060, 58.929 25.292 M 94 41.444 C 94 43.140, 95.452 45.297, 98.456 48.066 C 106.850 55.804, 111.675 67.623, 110.723 78.119 C 110.185 84.049, 106.616 93.131, 103.031 97.687 C 100.955 100.327, 100.253 105, 101.933 105 C 103.489 105, 109.817 96.655, 112.231 91.420 C 114.173 87.209, 114.500 84.842, 114.500 75 C 114.500 64.304, 114.295 63.081, 111.561 57.500 C 108.680 51.617, 100.598 42.461, 96.216 40.116 C 94.201 39.037, 94 39.158, 94 41.444 M 48.315 44.505 C 34.385 56.691, 30.364 75.282, 38.050 91.959 C 39.787 95.727, 42.736 100.291, 44.604 102.101 L 48 105.392 48 102.534 C 48 100.961, 46.614 97.515, 44.919 94.874 C 39.179 85.929, 37.489 73.832, 40.664 64.428 C 42.926 57.730, 45.853 53.297, 51.360 48.229 C 55.766 44.174, 57.477 40, 54.733 40 C 54.036 40, 51.148 42.027, 48.315 44.505 M 52.527 64.940 C 51.460 67.307, 50.727 71.410, 50.691 75.216 C 50.560 89.089, 61.696 100.029, 75.909 99.990 C 83.813 99.969, 94.237 92.463, 97.625 84.355 C 99.714 79.354, 99.331 70.284, 96.806 65 L 94.655 60.500 93.915 67.207 C 93.115 74.448, 91.681 77.252, 87.305 80.137 C 83.582 82.592, 67.447 82.800, 62.906 80.451 C 58.336 78.088, 56.008 73.468, 56.004 66.750 C 56.002 63.587, 55.618 61, 55.152 61 C 54.685 61, 53.504 62.773, 52.527 64.940 M 0.385 75 C 0.385 81.875, 0.545 84.688, 0.740 81.250 C 0.936 77.813, 0.936 72.188, 0.740 68.750 C 0.545 65.313, 0.385 68.125, 0.385 75" stroke="none" fill="#f8f9fb" fill-rule="evenodd"/></svg>