<svg width="150" height="150" viewBox="0 0 150 150" fill="none" xmlns="http://www.w3.org/2000/svg">
<ellipse cx="75.5" cy="77" rx="56.5" ry="56" fill="white"/>
<path fill-rule="evenodd" clip-rule="evenodd" d="M62.075 4.022C46.441 7.319 35.87 13.066 24.468 24.468C14.534 34.402 9.903 41.994 5.842 55C2.48 65.768 2.48 84.232 5.842 95C9.903 108.006 14.534 115.598 24.468 125.532C34.402 135.466 41.994 140.097 55 144.158C61.184 146.089 64.693 146.5 75 146.5C85.307 146.5 88.816 146.089 95 144.158C108.006 140.097 115.598 135.466 125.532 125.532C135.466 115.598 140.097 108.006 144.158 95C147.52 84.232 147.52 65.768 144.158 55C140.097 41.994 135.466 34.402 125.532 24.468C115.712 14.649 108.05 9.937 95.5 6.003C87.584 3.521 69.526 2.451 62.075 4.022ZM57.5 25.871C46.092 29.819 34.804 39.621 29.388 50.282C17.484 73.713 23.264 101.216 43.256 116.275C49.081 120.663 57.972 125.136 59.272 124.332C59.765 124.027 60.027 120.565 59.853 116.639L59.536 109.5L62.518 109.776C77.055 111.124 80.12 111.115 84.901 109.714L90 108.219V116.05C90 120.358 90.338 124.079 90.75 124.319C92.447 125.308 104.387 118.38 110.26 112.999C127.164 97.509 131.463 72.786 120.959 51.462C115.122 39.613 103.01 28.862 91.72 25.51C82.171 22.674 82.449 22.368 82.85 35.249C83.043 41.437 82.884 52.031 82.497 58.792L81.794 71.083L74.647 70.792L67.5 70.5L67.232 47.25L66.963 24L64.732 24.07C63.504 24.109 60.25 24.919 57.5 25.871ZM52.5 40.882C50.85 41.918 47.66 44.731 45.411 47.133C30.727 62.816 30.222 85.331 44.185 101.827C49.917 108.599 50.794 103.844 45.376 95.373C35.08 79.279 37.799 59.888 52.062 47.679C55.223 44.973 56.076 43.592 55.825 41.589L55.5 38.998L52.5 40.882ZM94 41.624C94 43.476 95.31 45.401 98.452 48.167C103.908 52.969 109.592 63.886 110.525 71.354C111.467 78.897 109.586 86.654 104.951 94.34C99.05 104.123 99.736 108.482 106.045 101.296C120.226 85.145 118.251 59.304 101.708 44.547C98.294 41.501 95.162 39.007 94.75 39.004C94.338 39.002 94 40.181 94 41.624ZM52.445 65.123C51.197 67.889 50.606 71.447 50.647 75.943C50.701 81.863 51.124 83.29 54.291 88.241C58.949 95.522 64.798 99.054 73.335 99.739C78.705 100.17 80.293 99.875 84.545 97.656C93.457 93.007 97.449 88.181 98.956 80.233C100.011 74.67 98.251 64.823 95.757 62.328C94.483 61.054 94.224 61.695 93.685 67.468C93.02 74.587 91.677 77.255 87.305 80.137C83.582 82.592 67.447 82.8 62.906 80.451C58.336 78.088 56.008 73.468 56.004 66.75C56.002 63.587 55.618 61 55.152 61C54.685 61 53.467 62.855 52.445 65.123Z" fill="#FB2D35"/>
</svg>
